<svg xmlns="http://www.w3.org/2000/svg" fill="none" viewBox="0 0 18 14" height="14" width="18"><path fill="#666" d="M3.063.375C1.606.375.46 1.59.46 3.045c0 .036.003.073.01.108a.629.629 0 0 0-.01.109v7.841a2.595 2.595 0 0 0 2.604 2.585h11.875a2.595 2.595 0 0 0 2.604-2.585V3.262a.63.63 0 0 0-.01-.109.629.629 0 0 0 .01-.108c0-1.455-1.147-2.67-2.604-2.67H3.063zm13.23 3.817L10.388 8a2.55 2.55 0 0 1-2.776 0L1.709 4.192v6.911c0 .732.6 1.335 1.354 1.335h11.875c.754 0 1.354-.603 1.354-1.335V4.192zM8.29 6.95 1.743 2.726c.14-.642.691-1.101 1.32-1.101h11.875c.63 0 1.181.459 1.32 1.101L9.711 6.95a1.301 1.301 0 0 1-1.42 0z" clip-rule="evenodd" fill-rule="evenodd"/></svg>